A disgruntled Stark Industries scientist named Michael Tan develops and envelops 

himself in a swarm of self-replicating nanobots. Now Spider-Man must work with Iron 

Man to contain Swarm.




Format                                   : MPEG-4
Format profile                           : Base Media / Version 2
Codec ID                                 : mp42
File size                                : 241 MiB
Duration                                 : 22mn 8s
Overall bit rate mode                    : Variable
Overall bit rate                         : 1 520 Kbps
Movie name                               : Swarm
Album                                    : Ultimate Spider-Man, Season 2
Performer                                : Ultimate Spider-Man
Genre                                    : Animation
Recorded date                            : UTC 2013-06-09 07:00:00
Encoded date                             : UTC 2013-06-10 08:29:30
Tagged date                              : UTC 2013-06-10 08:41:39
Writing application                      : HandBrake 0.9.9 2013051800
Cover                                    : Yes
desc                                     : When a lab experiment at Stark Industries goes wrong, Spider-Man and Iron Man must work together
ldes                                     : When a lab experiment at Stark Industries goes wrong, Spider-Man and Iron Man must work together.

Video
ID                                       : 1
Format                                   : AVC
Format/Info                              : Advanced Video Codec
Format profile                           : Main@L4.0
Format settings, CABAC                   : Yes
Format settings, ReFrames                : 4 frames
Codec ID                                 : avc1
Codec ID/Info                            : Advanced Video Coding
Duration                                 : 22mn 6s
Bit rate mode                            : Variable
Bit rate                                 : 1 356 Kbps
Width                                    : 1 280 pixels
Height                                   : 720 pixels
Display aspect ratio                     : 16:9
Frame rate mode                          : Variable
Frame rate                               : 23.976 fps
Minimum frame rate                       : 23.974 fps
Maximum frame rate                       : 23.981 fps
Color space                              : YUV
Chroma subsampling                       : 4:2:0
Bit depth                                : 8 bits
Scan type                                : Progressive
Bits/(Pixel*Frame)                       : 0.061
Stream size                              : 214 MiB (89%)
Writing library                          : x264 core 130 r2273 b3065e6
Encoding settings                        : cabac=1 / ref=2 / deblock=1:0:0 / 
Encoded date                             : UTC 2013-06-10 08:29:30
Tagged date                              : UTC 2013-06-10 08:41:39
Color primaries                          : BT.709
Transfer characteristics                 : BT.709
Matrix coefficients                      : BT.709

Audio
ID                                       : 2
Format                                   : AAC
Format/Info                              : Advanced Audio Codec
Format profile                           : LC
Codec ID                                 : 40
Duration                                 : 22mn 8s
Bit rate mode                            : Variable
Bit rate                                 : 160 Kbps
Maximum bit rate                         : 292 Kbps
Channel(s)                               : 2 channels
Channel positions                        : Front: L R
Sampling rate                            : 48.0 KHz
Compression mode                         : Lossy
Delay relative to video                  : 83ms
Stream size                              : 25.3 MiB (11%)
Language                                 : English
Encoded date                             : UTC 2013-06-10 08:29:30
Tagged date                              : UTC 2013-06-10 08:41:38
